<svg xmlns="http://www.w3.org/2000/svg" viewBox="0 0 1000 700" width="1000" height="700">
  <defs>
    <!-- Gradients -->
    <linearGradient id="navyGrad" x1="0%" y1="0%" x2="100%" y2="100%">
      <stop offset="0%" stop-color="#2B5A8C"/>
      <stop offset="100%" stop-color="#1A3A5C"/>
    </linearGradient>
    <linearGradient id="goldGrad" x1="0%" y1="0%" x2="100%" y2="0%">
      <stop offset="0%" stop-color="#D4853A"/>
      <stop offset="100%" stop-color="#e8a060"/>
    </linearGradient>
    <linearGradient id="arrowGrad1" x1="0%" y1="0%" x2="100%" y2="0%">
      <stop offset="0%" stop-color="#D4853A" stop-opacity="0.3"/>
      <stop offset="100%" stop-color="#D4853A" stop-opacity="1"/>
    </linearGradient>
    <linearGradient id="arrowGrad2" x1="0%" y1="0%" x2="0%" y2="100%">
      <stop offset="0%" stop-color="#D4853A" stop-opacity="0.3"/>
      <stop offset="100%" stop-color="#D4853A" stop-opacity="1"/>
    </linearGradient>
    <linearGradient id="arrowGrad3" x1="100%" y1="0%" x2="0%" y2="0%">
      <stop offset="0%" stop-color="#D4853A" stop-opacity="0.3"/>
      <stop offset="100%" stop-color="#D4853A" stop-opacity="1"/>
    </linearGradient>
    <linearGradient id="arrowGrad4" x1="0%" y1="100%" x2="0%" y2="0%">
      <stop offset="0%" stop-color="#D4853A" stop-opacity="0.3"/>
      <stop offset="100%" stop-color="#D4853A" stop-opacity="1"/>
    </linearGradient>
    <linearGradient id="statsBarGrad" x1="0%" y1="0%" x2="100%" y2="0%">
      <stop offset="0%" stop-color="#1A2A3A"/>
      <stop offset="100%" stop-color="#2B5A8C"/>
    </linearGradient>
    <linearGradient id="cardGradTL" x1="0%" y1="0%" x2="100%" y2="100%">
      <stop offset="0%" stop-color="#ffffff"/>
      <stop offset="100%" stop-color="#F5F1EB"/>
    </linearGradient>
    <linearGradient id="cardGradTR" x1="100%" y1="0%" x2="0%" y2="100%">
      <stop offset="0%" stop-color="#ffffff"/>
      <stop offset="100%" stop-color="#F5F1EB"/>
    </linearGradient>
    <linearGradient id="cardGradBR" x1="100%" y1="100%" x2="0%" y2="0%">
      <stop offset="0%" stop-color="#ffffff"/>
      <stop offset="100%" stop-color="#F5F1EB"/>
    </linearGradient>
    <linearGradient id="cardGradBL" x1="0%" y1="100%" x2="100%" y2="0%">
      <stop offset="0%" stop-color="#ffffff"/>
      <stop offset="100%" stop-color="#F5F1EB"/>
    </linearGradient>
    <linearGradient id="hubRingGrad" x1="0%" y1="0%" x2="100%" y2="100%">
      <stop offset="0%" stop-color="#2B5A8C"/>
      <stop offset="50%" stop-color="#1A3A5C"/>
      <stop offset="100%" stop-color="#2B5A8C"/>
    </linearGradient>

    <!-- Drop shadows -->
    <filter id="cardShadow" x="-5%" y="-5%" width="110%" height="115%">
      <feDropShadow dx="0" dy="2" stdDeviation="6" flood-color="#1A2A3A" flood-opacity="0.08"/>
    </filter>
    <filter id="hubShadow" x="-20%" y="-20%" width="140%" height="140%">
      <feDropShadow dx="0" dy="3" stdDeviation="10" flood-color="#1A2A3A" flood-opacity="0.15"/>
    </filter>
    <filter id="hubGlow" x="-30%" y="-30%" width="160%" height="160%">
      <feGaussianBlur in="SourceGraphic" stdDeviation="15" result="blur"/>
      <feColorMatrix in="blur" type="matrix" values="0 0 0 0 0.169 0 0 0 0 0.353 0 0 0 0 0.549 0 0 0 0.12 0"/>
    </filter>
    <filter id="iconShadow" x="-10%" y="-10%" width="120%" height="120%">
      <feDropShadow dx="0" dy="1" stdDeviation="2" flood-color="#1A2A3A" flood-opacity="0.1"/>
    </filter>

    <!-- Dot grid pattern -->
    <pattern id="dotGrid" width="20" height="20" patternUnits="userSpaceOnUse">
      <circle cx="10" cy="10" r="0.7" fill="#2B5A8C" opacity="0.06"/>
    </pattern>

    <!-- Arrow marker -->
    <marker id="arrowHead" viewBox="0 0 10 10" refX="8" refY="5" markerWidth="8" markerHeight="8" orient="auto-start-reverse">
      <path d="M 0 1 L 8 5 L 0 9 Z" fill="#D4853A"/>
    </marker>

    <!-- Clip for time arcs -->
    <clipPath id="clipCenter">
      <circle cx="500" cy="300" r="200"/>
    </clipPath>
  </defs>

  <!-- Background -->
  <rect width="1000" height="700" fill="#FDFBF7" rx="0"/>
  <rect width="1000" height="700" fill="url(#dotGrid)"/>

  <!-- Subtle radial glow behind center -->
  <circle cx="500" cy="300" r="180" fill="url(#hubRingGrad)" opacity="0.03" filter="url(#hubGlow)"/>

  <!-- ====== CONNECTING ARROWS (curved, clockwise: C->A->S->E->C) ====== -->

  <!-- Arrow: C (top-left) -> A (top-right) — arc across top -->
  <path d="M 340 195 Q 500 130 660 195" fill="none" stroke="url(#arrowGrad1)" stroke-width="2.5" marker-end="url(#arrowHead)" stroke-linecap="round"/>

  <!-- Arrow: A (top-right) -> S (bottom-right) — arc down right -->
  <path d="M 715 270 Q 770 300 715 420" fill="none" stroke="url(#arrowGrad2)" stroke-width="2.5" marker-end="url(#arrowHead)" stroke-linecap="round"/>

  <!-- Arrow: S (bottom-right) -> E (bottom-left) — arc across bottom -->
  <path d="M 660 485 Q 500 545 340 485" fill="none" stroke="url(#arrowGrad3)" stroke-width="2.5" marker-end="url(#arrowHead)" stroke-linecap="round"/>

  <!-- Arrow: E (bottom-left) -> C (top-left) — arc up left -->
  <path d="M 285 420 Q 230 300 285 270" fill="none" stroke="url(#arrowGrad4)" stroke-width="2.5" marker-end="url(#arrowHead)" stroke-linecap="round"/>

  <!-- Thin connecting lines from hub to each quadrant -->
  <line x1="440" y1="255" x2="365" y2="220" stroke="#2B5A8C" stroke-width="1" opacity="0.15" stroke-dasharray="4 3"/>
  <line x1="560" y1="255" x2="635" y2="220" stroke="#2B5A8C" stroke-width="1" opacity="0.15" stroke-dasharray="4 3"/>
  <line x1="560" y1="345" x2="635" y2="400" stroke="#2B5A8C" stroke-width="1" opacity="0.15" stroke-dasharray="4 3"/>
  <line x1="440" y1="345" x2="365" y2="400" stroke="#2B5A8C" stroke-width="1" opacity="0.15" stroke-dasharray="4 3"/>

  <!-- ====== QUADRANT CARDS ====== -->

  <!-- TOP-LEFT: C - CONTEXTUALISE -->
  <g>
    <rect x="50" y="48" width="380" height="220" rx="8" fill="url(#cardGradTL)" stroke="#2B5A8C" stroke-width="1" stroke-opacity="0.12" filter="url(#cardShadow)"/>
    <!-- Gold accent top bar -->
    <rect x="50" y="48" width="380" height="4" rx="8" fill="url(#goldGrad)"/>
    <rect x="54" y="52" width="372" height="0" rx="6" fill="#FDFBF7"/>

    <!-- Time arc (proportion: 10/60 = 1/6) -->
    <g transform="translate(96, 90)">
      <circle cx="0" cy="0" r="18" fill="none" stroke="#F5F1EB" stroke-width="4"/>
      <path d="M 0 -18 A 18 18 0 0 1 15.59 9" fill="none" stroke="#D4853A" stroke-width="4" stroke-linecap="round"/>
      <text x="0" y="3" text-anchor="middle" font-family="Arial, Helvetica, sans-serif" font-size="9" fill="#1A2A3A" font-weight="700">10m</text>
    </g>

    <!-- Large letter -->
    <text x="135" y="105" font-family="Georgia, 'Times New Roman', serif" font-size="52" font-weight="400" fill="#2B5A8C" opacity="0.9">C</text>

    <!-- Step name -->
    <text x="175" y="88" font-family="Arial, Helvetica, sans-serif" font-size="13" font-weight="700" fill="#1A2A3A" letter-spacing="2.5">CONTEXTUALISE</text>
    <text x="175" y="106" font-family="Georgia, 'Times New Roman', serif" font-size="11" fill="#D4853A" font-style="italic">Step 1 of 4</text>

    <!-- Icon: magnifying glass over document -->
    <g transform="translate(370, 80)" filter="url(#iconShadow)">
      <rect x="-20" y="-18" width="36" height="42" rx="3" fill="none" stroke="#2B5A8C" stroke-width="1.5" opacity="0.5"/>
      <line x1="-14" y1="-8" x2="6" y2="-8" stroke="#2B5A8C" stroke-width="1.2" opacity="0.4"/>
      <line x1="-14" y1="-1" x2="6" y2="-1" stroke="#2B5A8C" stroke-width="1.2" opacity="0.4"/>
      <line x1="-14" y1="6" x2="0" y2="6" stroke="#2B5A8C" stroke-width="1.2" opacity="0.4"/>
      <circle cx="4" cy="10" r="9" fill="none" stroke="#D4853A" stroke-width="2"/>
      <line x1="10" y1="16" x2="17" y2="23" stroke="#D4853A" stroke-width="2.5" stroke-linecap="round"/>
    </g>

    <!-- Benefit -->
    <text x="74" y="142" font-family="Georgia, 'Times New Roman', serif" font-size="14" fill="#1A2A3A" font-weight="400">
      <tspan font-style="italic">"Identify what the examiner really wants"</tspan>
    </text>

    <!-- Skills -->
    <g transform="translate(74, 168)">
      <rect x="0" y="0" width="8" height="8" rx="2" fill="#D4853A" opacity="0.2"/>
      <rect x="1.5" y="1.5" width="5" height="5" rx="1" fill="#D4853A"/>
      <text x="14" y="8" font-family="Arial, Helvetica, sans-serif" font-size="10.5" fill="#1A2A3A" opacity="0.65">Question decoding</text>
    </g>
    <g transform="translate(74, 186)">
      <rect x="0" y="0" width="8" height="8" rx="2" fill="#D4853A" opacity="0.2"/>
      <rect x="1.5" y="1.5" width="5" height="5" rx="1" fill="#D4853A"/>
      <text x="14" y="8" font-family="Arial, Helvetica, sans-serif" font-size="10.5" fill="#1A2A3A" opacity="0.65">Format recognition</text>
    </g>
    <g transform="translate(74, 204)">
      <rect x="0" y="0" width="8" height="8" rx="2" fill="#D4853A" opacity="0.2"/>
      <rect x="1.5" y="1.5" width="5" height="5" rx="1" fill="#D4853A"/>
      <text x="14" y="8" font-family="Arial, Helvetica, sans-serif" font-size="10.5" fill="#1A2A3A" opacity="0.65">Keyword spotting</text>
    </g>

    <!-- Decorative corner -->
    <path d="M 50 260 L 50 248 Q 50 244 54 244 L 66 244" fill="none" stroke="#D4853A" stroke-width="1" opacity="0.25"/>
  </g>

  <!-- TOP-RIGHT: A - ANALYSE -->
  <g>
    <rect x="570" y="48" width="380" height="220" rx="8" fill="url(#cardGradTR)" stroke="#2B5A8C" stroke-width="1" stroke-opacity="0.12" filter="url(#cardShadow)"/>
    <rect x="570" y="48" width="380" height="4" rx="8" fill="url(#goldGrad)"/>

    <!-- Time arc (20/60 = 1/3) -->
    <g transform="translate(616, 90)">
      <circle cx="0" cy="0" r="18" fill="none" stroke="#F5F1EB" stroke-width="4"/>
      <path d="M 0 -18 A 18 18 0 1 1 -15.59 9" fill="none" stroke="#D4853A" stroke-width="4" stroke-linecap="round"/>
      <text x="0" y="3" text-anchor="middle" font-family="Arial, Helvetica, sans-serif" font-size="9" fill="#1A2A3A" font-weight="700">20m</text>
    </g>

    <!-- Large letter -->
    <text x="655" y="105" font-family="Georgia, 'Times New Roman', serif" font-size="52" font-weight="400" fill="#2B5A8C" opacity="0.9">A</text>

    <!-- Step name -->
    <text x="700" y="88" font-family="Arial, Helvetica, sans-serif" font-size="13" font-weight="700" fill="#1A2A3A" letter-spacing="2.5">ANALYSE</text>
    <text x="700" y="106" font-family="Georgia, 'Times New Roman', serif" font-size="11" fill="#D4853A" font-style="italic">Step 2 of 4</text>

    <!-- Icon: prism/layers breaking apart -->
    <g transform="translate(890, 80)" filter="url(#iconShadow)">
      <!-- Prism shape -->
      <polygon points="0,-20 18,14 -18,14" fill="none" stroke="#2B5A8C" stroke-width="1.8" opacity="0.6"/>
      <!-- Rays breaking out -->
      <line x1="18" y1="4" x2="30" y2="-8" stroke="#D4853A" stroke-width="1.5" opacity="0.8"/>
      <line x1="18" y1="8" x2="32" y2="2" stroke="#D4853A" stroke-width="1.5" opacity="0.6"/>
      <line x1="18" y1="12" x2="30" y2="14" stroke="#D4853A" stroke-width="1.5" opacity="0.4"/>
      <!-- Inner detail -->
      <line x1="-8" y1="4" x2="8" y2="4" stroke="#2B5A8C" stroke-width="0.8" opacity="0.3"/>
    </g>

    <!-- Benefit -->
    <text x="594" y="142" font-family="Georgia, 'Times New Roman', serif" font-size="14" fill="#1A2A3A" font-weight="400">
      <tspan font-style="italic">"Uncover meaning others miss"</tspan>
    </text>

    <!-- Skills -->
    <g transform="translate(594, 168)">
      <rect x="0" y="0" width="8" height="8" rx="2" fill="#D4853A" opacity="0.2"/>
      <rect x="1.5" y="1.5" width="5" height="5" rx="1" fill="#D4853A"/>
      <text x="14" y="8" font-family="Arial, Helvetica, sans-serif" font-size="10.5" fill="#1A2A3A" opacity="0.65">Inference</text>
    </g>
    <g transform="translate(594, 186)">
      <rect x="0" y="0" width="8" height="8" rx="2" fill="#D4853A" opacity="0.2"/>
      <rect x="1.5" y="1.5" width="5" height="5" rx="1" fill="#D4853A"/>
      <text x="14" y="8" font-family="Arial, Helvetica, sans-serif" font-size="10.5" fill="#1A2A3A" opacity="0.65">Language techniques</text>
    </g>
    <g transform="translate(594, 204)">
      <rect x="0" y="0" width="8" height="8" rx="2" fill="#D4853A" opacity="0.2"/>
      <rect x="1.5" y="1.5" width="5" height="5" rx="1" fill="#D4853A"/>
      <text x="14" y="8" font-family="Arial, Helvetica, sans-serif" font-size="10.5" fill="#1A2A3A" opacity="0.65">Evidence extraction</text>
    </g>

    <path d="M 942 260 L 942 248 Q 942 244 938 244 L 926 244" fill="none" stroke="#D4853A" stroke-width="1" opacity="0.25"/>
  </g>

  <!-- BOTTOM-RIGHT: S - STRUCTURE -->
  <g>
    <rect x="570" y="330" width="380" height="220" rx="8" fill="url(#cardGradBR)" stroke="#2B5A8C" stroke-width="1" stroke-opacity="0.12" filter="url(#cardShadow)"/>
    <rect x="570" y="546" width="380" height="4" rx="8" fill="url(#goldGrad)"/>

    <!-- Time arc (20/60 = 1/3) -->
    <g transform="translate(616, 372)">
      <circle cx="0" cy="0" r="18" fill="none" stroke="#F5F1EB" stroke-width="4"/>
      <path d="M 0 -18 A 18 18 0 1 1 -15.59 9" fill="none" stroke="#D4853A" stroke-width="4" stroke-linecap="round"/>
      <text x="0" y="3" text-anchor="middle" font-family="Arial, Helvetica, sans-serif" font-size="9" fill="#1A2A3A" font-weight="700">20m</text>
    </g>

    <!-- Large letter -->
    <text x="655" y="387" font-family="Georgia, 'Times New Roman', serif" font-size="52" font-weight="400" fill="#2B5A8C" opacity="0.9">S</text>

    <!-- Step name -->
    <text x="695" y="370" font-family="Arial, Helvetica, sans-serif" font-size="13" font-weight="700" fill="#1A2A3A" letter-spacing="2.5">STRUCTURE</text>
    <text x="695" y="388" font-family="Georgia, 'Times New Roman', serif" font-size="11" fill="#D4853A" font-style="italic">Step 3 of 4</text>

    <!-- Icon: building blocks / paragraph outline -->
    <g transform="translate(890, 362)" filter="url(#iconShadow)">
      <rect x="-18" y="-16" width="36" height="10" rx="2" fill="none" stroke="#2B5A8C" stroke-width="1.5" opacity="0.5"/>
      <rect x="-18" y="-2" width="28" height="10" rx="2" fill="none" stroke="#2B5A8C" stroke-width="1.5" opacity="0.5"/>
      <rect x="-18" y="12" width="36" height="10" rx="2" fill="none" stroke="#D4853A" stroke-width="1.5" opacity="0.7"/>
      <!-- Stacking indicator -->
      <line x1="22" y1="-12" x2="22" y2="18" stroke="#D4853A" stroke-width="1" opacity="0.4" stroke-dasharray="2 2"/>
      <polygon points="22,20 19,15 25,15" fill="#D4853A" opacity="0.5"/>
    </g>

    <!-- Benefit -->
    <text x="594" y="424" font-family="Georgia, 'Times New Roman', serif" font-size="14" fill="#1A2A3A" font-weight="400">
      <tspan font-style="italic">"Build answers that earn full marks"</tspan>
    </text>

    <!-- Skills -->
    <g transform="translate(594, 450)">
      <rect x="0" y="0" width="8" height="8" rx="2" fill="#D4853A" opacity="0.2"/>
      <rect x="1.5" y="1.5" width="5" height="5" rx="1" fill="#D4853A"/>
      <text x="14" y="8" font-family="Arial, Helvetica, sans-serif" font-size="10.5" fill="#1A2A3A" opacity="0.65">Claim</text>
    </g>
    <g transform="translate(594, 468)">
      <rect x="0" y="0" width="8" height="8" rx="2" fill="#D4853A" opacity="0.2"/>
      <rect x="1.5" y="1.5" width="5" height="5" rx="1" fill="#D4853A"/>
      <text x="14" y="8" font-family="Arial, Helvetica, sans-serif" font-size="10.5" fill="#1A2A3A" opacity="0.65">Evidence</text>
    </g>
    <g transform="translate(594, 486)">
      <rect x="0" y="0" width="8" height="8" rx="2" fill="#D4853A" opacity="0.2"/>
      <rect x="1.5" y="1.5" width="5" height="5" rx="1" fill="#D4853A"/>
      <text x="14" y="8" font-family="Arial, Helvetica, sans-serif" font-size="10.5" fill="#1A2A3A" opacity="0.65">Reasoning</text>
    </g>

    <!-- CER flow diagram -->
    <g transform="translate(720, 460)">
      <rect x="0" y="0" width="50" height="18" rx="3" fill="#2B5A8C" opacity="0.08" stroke="#2B5A8C" stroke-width="0.8" stroke-opacity="0.2"/>
      <text x="25" y="12" text-anchor="middle" font-family="Arial, Helvetica, sans-serif" font-size="8" fill="#2B5A8C" font-weight="600">CLAIM</text>
      <line x1="55" y1="9" x2="65" y2="9" stroke="#D4853A" stroke-width="1" marker-end="url(#arrowHead)"/>
      <rect x="70" y="0" width="65" height="18" rx="3" fill="#2B5A8C" opacity="0.08" stroke="#2B5A8C" stroke-width="0.8" stroke-opacity="0.2"/>
      <text x="102" y="12" text-anchor="middle" font-family="Arial, Helvetica, sans-serif" font-size="8" fill="#2B5A8C" font-weight="600">EVIDENCE</text>
      <line x1="140" y1="9" x2="150" y2="9" stroke="#D4853A" stroke-width="1" marker-end="url(#arrowHead)"/>
      <rect x="155" y="0" width="70" height="18" rx="3" fill="#D4853A" opacity="0.1" stroke="#D4853A" stroke-width="0.8" stroke-opacity="0.3"/>
      <text x="190" y="12" text-anchor="middle" font-family="Arial, Helvetica, sans-serif" font-size="8" fill="#D4853A" font-weight="600">REASONING</text>
    </g>

    <path d="M 942 542 L 942 530 Q 942 526 938 526 L 926 526" fill="none" stroke="#D4853A" stroke-width="1" opacity="0.25"/>
  </g>

  <!-- BOTTOM-LEFT: E - EVALUATE -->
  <g>
    <rect x="50" y="330" width="380" height="220" rx="8" fill="url(#cardGradBL)" stroke="#2B5A8C" stroke-width="1" stroke-opacity="0.12" filter="url(#cardShadow)"/>
    <rect x="50" y="546" width="380" height="4" rx="8" fill="url(#goldGrad)"/>

    <!-- Time arc (10/60 = 1/6) -->
    <g transform="translate(96, 372)">
      <circle cx="0" cy="0" r="18" fill="none" stroke="#F5F1EB" stroke-width="4"/>
      <path d="M 0 -18 A 18 18 0 0 1 15.59 9" fill="none" stroke="#D4853A" stroke-width="4" stroke-linecap="round"/>
      <text x="0" y="3" text-anchor="middle" font-family="Arial, Helvetica, sans-serif" font-size="9" fill="#1A2A3A" font-weight="700">10m</text>
    </g>

    <!-- Large letter -->
    <text x="135" y="387" font-family="Georgia, 'Times New Roman', serif" font-size="52" font-weight="400" fill="#2B5A8C" opacity="0.9">E</text>

    <!-- Step name -->
    <text x="177" y="370" font-family="Arial, Helvetica, sans-serif" font-size="13" font-weight="700" fill="#1A2A3A" letter-spacing="2.5">EVALUATE</text>
    <text x="177" y="388" font-family="Georgia, 'Times New Roman', serif" font-size="11" fill="#D4853A" font-style="italic">Step 4 of 4</text>

    <!-- Icon: checklist with checkmark -->
    <g transform="translate(370, 362)" filter="url(#iconShadow)">
      <rect x="-20" y="-18" width="36" height="42" rx="3" fill="none" stroke="#2B5A8C" stroke-width="1.5" opacity="0.5"/>
      <!-- Checklist lines -->
      <rect x="-14" y="-10" width="8" height="8" rx="1" fill="none" stroke="#2B5A8C" stroke-width="1" opacity="0.4"/>
      <polyline points="-13,-6 -11,-4 -8,-9" fill="none" stroke="#D4853A" stroke-width="1.5" stroke-linecap="round" stroke-linejoin="round"/>
      <line x1="-2" y1="-6" x2="10" y2="-6" stroke="#2B5A8C" stroke-width="1.2" opacity="0.4"/>

      <rect x="-14" y="2" width="8" height="8" rx="1" fill="none" stroke="#2B5A8C" stroke-width="1" opacity="0.4"/>
      <polyline points="-13,6 -11,8 -8,3" fill="none" stroke="#D4853A" stroke-width="1.5" stroke-linecap="round" stroke-linejoin="round"/>
      <line x1="-2" y1="6" x2="10" y2="6" stroke="#2B5A8C" stroke-width="1.2" opacity="0.4"/>

      <rect x="-14" y="14" width="8" height="8" rx="1" fill="none" stroke="#2B5A8C" stroke-width="1" opacity="0.4"/>
      <polyline points="-13,18 -11,20 -8,15" fill="none" stroke="#D4853A" stroke-width="1.5" stroke-linecap="round" stroke-linejoin="round"/>
      <line x1="-2" y1="18" x2="10" y2="18" stroke="#2B5A8C" stroke-width="1.2" opacity="0.4"/>
    </g>

    <!-- Benefit -->
    <text x="74" y="424" font-family="Georgia, 'Times New Roman', serif" font-size="14" fill="#1A2A3A" font-weight="400">
      <tspan font-style="italic">"Catch 3-5 marks of avoidable errors"</tspan>
    </text>

    <!-- Skills -->
    <g transform="translate(74, 450)">
      <rect x="0" y="0" width="8" height="8" rx="2" fill="#D4853A" opacity="0.2"/>
      <rect x="1.5" y="1.5" width="5" height="5" rx="1" fill="#D4853A"/>
      <text x="14" y="8" font-family="Arial, Helvetica, sans-serif" font-size="10.5" fill="#1A2A3A" opacity="0.65">Self-review</text>
    </g>
    <g transform="translate(74, 468)">
      <rect x="0" y="0" width="8" height="8" rx="2" fill="#D4853A" opacity="0.2"/>
      <rect x="1.5" y="1.5" width="5" height="5" rx="1" fill="#D4853A"/>
      <text x="14" y="8" font-family="Arial, Helvetica, sans-serif" font-size="10.5" fill="#1A2A3A" opacity="0.65">Error checking</text>
    </g>
    <g transform="translate(74, 486)">
      <rect x="0" y="0" width="8" height="8" rx="2" fill="#D4853A" opacity="0.2"/>
      <rect x="1.5" y="1.5" width="5" height="5" rx="1" fill="#D4853A"/>
      <text x="14" y="8" font-family="Arial, Helvetica, sans-serif" font-size="10.5" fill="#1A2A3A" opacity="0.65">CASE checklist</text>
    </g>

    <path d="M 50 542 L 50 530 Q 50 526 54 526 L 66 526" fill="none" stroke="#D4853A" stroke-width="1" opacity="0.25"/>
  </g>

  <!-- ====== CENTRAL HUB ====== -->
  <g>
    <!-- Outer glow ring -->
    <circle cx="500" cy="300" r="95" fill="#FDFBF7" stroke="#2B5A8C" stroke-width="0.5" opacity="0.5"/>

    <!-- Main hub circle -->
    <circle cx="500" cy="300" r="82" fill="#FDFBF7" filter="url(#hubShadow)"/>
    <circle cx="500" cy="300" r="82" fill="url(#navyGrad)" opacity="0.03"/>

    <!-- Navy ring border -->
    <circle cx="500" cy="300" r="82" fill="none" stroke="url(#hubRingGrad)" stroke-width="3.5"/>

    <!-- Gold accent inner ring -->
    <circle cx="500" cy="300" r="74" fill="none" stroke="#D4853A" stroke-width="1" opacity="0.35"/>

    <!-- Decorative ring segments -->
    <circle cx="500" cy="300" r="90" fill="none" stroke="#2B5A8C" stroke-width="0.5" opacity="0.15" stroke-dasharray="4 8"/>

    <!-- CASE text -->
    <text x="500" y="290" text-anchor="middle" font-family="Georgia, 'Times New Roman', serif" font-size="40" font-weight="700" fill="#2B5A8C" letter-spacing="8">CASE</text>

    <!-- METHOD subtitle -->
    <text x="500" y="312" text-anchor="middle" font-family="Arial, Helvetica, sans-serif" font-size="12" font-weight="600" fill="#D4853A" letter-spacing="4">METHOD</text>

    <!-- Divider line -->
    <line x1="470" y1="322" x2="530" y2="322" stroke="#2B5A8C" stroke-width="0.8" opacity="0.2"/>

    <!-- Subtitle -->
    <text x="500" y="338" text-anchor="middle" font-family="Arial, Helvetica, sans-serif" font-size="9" fill="#1A2A3A" opacity="0.5">The 4-Step System</text>

    <!-- Small 60-min total indicator -->
    <text x="500" y="354" text-anchor="middle" font-family="Arial, Helvetica, sans-serif" font-size="8" fill="#D4853A" opacity="0.6">60-MINUTE LESSON</text>
  </g>

  <!-- ====== STATS BAR AT BOTTOM ====== -->
  <g>
    <rect x="0" y="600" width="1000" height="100" fill="url(#statsBarGrad)"/>
    <!-- Subtle top border -->
    <rect x="0" y="600" width="1000" height="2" fill="#D4853A" opacity="0.4"/>

    <!-- Stat 1: Pass Rate -->
    <g transform="translate(125, 650)">
      <!-- Icon: trophy -->
      <g transform="translate(-50, -8)">
        <path d="M -6 -8 L 6 -8 L 4 2 Q 0 6 -4 2 Z" fill="none" stroke="#D4853A" stroke-width="1.3"/>
        <line x1="0" y1="2" x2="0" y2="7" stroke="#D4853A" stroke-width="1"/>
        <line x1="-4" y1="7" x2="4" y2="7" stroke="#D4853A" stroke-width="1.3"/>
        <path d="M -6 -6 Q -10 -4 -8 0 Q -6 2 -4 1" fill="none" stroke="#D4853A" stroke-width="1" opacity="0.6"/>
        <path d="M 6 -6 Q 10 -4 8 0 Q 6 2 4 1" fill="none" stroke="#D4853A" stroke-width="1" opacity="0.6"/>
      </g>
      <text x="0" y="-6" text-anchor="middle" font-family="Georgia, 'Times New Roman', serif" font-size="26" font-weight="700" fill="#ffffff">95%</text>
      <text x="0" y="14" text-anchor="middle" font-family="Arial, Helvetica, sans-serif" font-size="11" fill="#ffffff" opacity="0.7">Pass Rate</text>
    </g>

    <!-- Divider -->
    <line x1="250" y1="620" x2="250" y2="680" stroke="#ffffff" stroke-width="0.5" opacity="0.15"/>

    <!-- Stat 2: Distinction -->
    <g transform="translate(375, 650)">
      <!-- Icon: star -->
      <g transform="translate(-50, -8)">
        <polygon points="0,-9 2.5,-3 9,-3 4,2 5.5,9 0,5 -5.5,9 -4,2 -9,-3 -2.5,-3" fill="none" stroke="#D4853A" stroke-width="1.3"/>
      </g>
      <text x="0" y="-6" text-anchor="middle" font-family="Georgia, 'Times New Roman', serif" font-size="26" font-weight="700" fill="#ffffff">90%</text>
      <text x="0" y="14" text-anchor="middle" font-family="Arial, Helvetica, sans-serif" font-size="11" fill="#ffffff" opacity="0.7">A1-B3 Grade</text>
    </g>

    <!-- Divider -->
    <line x1="500" y1="620" x2="500" y2="680" stroke="#ffffff" stroke-width="0.5" opacity="0.15"/>

    <!-- Stat 3: Improvement -->
    <g transform="translate(625, 650)">
      <!-- Icon: upward chart -->
      <g transform="translate(-50, -8)">
        <polyline points="-8,6 -2,0 3,-4 8,-8" fill="none" stroke="#D4853A" stroke-width="1.5" stroke-linecap="round" stroke-linejoin="round"/>
        <polyline points="4,-8 8,-8 8,-4" fill="none" stroke="#D4853A" stroke-width="1.3" stroke-linecap="round" stroke-linejoin="round"/>
        <line x1="-8" y1="8" x2="8" y2="8" stroke="#D4853A" stroke-width="1" opacity="0.5"/>
      </g>
      <text x="0" y="-6" text-anchor="middle" font-family="Georgia, 'Times New Roman', serif" font-size="26" font-weight="700" fill="#ffffff">3 Mo.</text>
      <text x="0" y="14" text-anchor="middle" font-family="Arial, Helvetica, sans-serif" font-size="11" fill="#ffffff" opacity="0.7">Avg. Improvement</text>
    </g>

    <!-- Divider -->
    <line x1="750" y1="620" x2="750" y2="680" stroke="#ffffff" stroke-width="0.5" opacity="0.15"/>

    <!-- Stat 4: Class Size -->
    <g transform="translate(875, 650)">
      <!-- Icon: people group -->
      <g transform="translate(-50, -8)">
        <circle cx="-4" cy="-5" r="3" fill="none" stroke="#D4853A" stroke-width="1.2"/>
        <path d="M -10 4 Q -10 -1 -4 -1 Q 2 -1 2 4" fill="none" stroke="#D4853A" stroke-width="1.2"/>
        <circle cx="5" cy="-5" r="3" fill="none" stroke="#D4853A" stroke-width="1" opacity="0.5"/>
        <path d="M 0 4 Q 0 0 5 0 Q 10 0 10 4" fill="none" stroke="#D4853A" stroke-width="1" opacity="0.5"/>
      </g>
      <text x="0" y="-6" text-anchor="middle" font-family="Georgia, 'Times New Roman', serif" font-size="26" font-weight="700" fill="#ffffff">Max 6</text>
      <text x="0" y="14" text-anchor="middle" font-family="Arial, Helvetica, sans-serif" font-size="11" fill="#ffffff" opacity="0.7">Students per Class</text>
    </g>
  </g>

  <!-- ====== TITLE / BRANDING ====== -->
  <g>
    <text x="500" y="26" text-anchor="middle" font-family="Arial, Helvetica, sans-serif" font-size="9" fill="#2B5A8C" opacity="0.45" letter-spacing="3" font-weight="600">A-WORTHY TUITION CENTRE</text>
    <text x="500" y="590" text-anchor="middle" font-family="Arial, Helvetica, sans-serif" font-size="8" fill="#1A2A3A" opacity="0.3">a-worthy.com</text>
  </g>
</svg>